<svg width="14" height="14" viewBox="0 0 14 14" fill="none" xmlns="http://www.w3.org/2000/svg">
<rect x="0.5" y="1.83337" width="13" height="11.6667" rx="2.5" stroke="#08D9D6"/>
<rect y="4" width="14" height="0.666667" fill="#08D9D6"/>
<rect x="2.66675" y="6.66663" width="0.666667" height="0.666667" fill="#08D9D6"/>
<rect x="4.6665" y="6.66663" width="0.666667" height="0.666667" fill="#08D9D6"/>
<rect x="6.66675" y="6.66663" width="0.666667" height="0.666667" fill="#08D9D6"/>
<rect x="8.66675" y="6.66663" width="0.666667" height="0.666667" fill="#08D9D6"/>
<rect x="10.6665" y="6.66663" width="0.666667" height="0.666667" fill="#08D9D6"/>
<rect x="2.66675" y="8.66675" width="0.666667" height="0.666667" fill="#08D9D6"/>
<rect x="4.6665" y="8.66675" width="0.666667" height="0.666667" fill="#08D9D6"/>
<rect x="6.66675" y="8.66675" width="0.666667" height="0.666667" fill="#08D9D6"/>
<rect x="8.66675" y="8.66675" width="0.666667" height="0.666667" fill="#08D9D6"/>
<rect x="10.6665" y="8.66675" width="0.666667" height="0.666667" fill="#08D9D6"/>
<rect x="2.66675" y="10.6666" width="0.666667" height="0.666667" fill="#08D9D6"/>
<rect x="4.6665" y="10.6666" width="0.666667" height="0.666667" fill="#08D9D6"/>
<rect x="6.66675" y="10.6666" width="0.666667" height="0.666667" fill="#08D9D6"/>
<rect x="8.66675" y="10.6666" width="0.666667" height="0.666667" fill="#08D9D6"/>
<rect x="10.6665" y="10.6666" width="0.666667" height="0.666667" fill="#08D9D6"/>
<rect x="2.00024" width="0.666667" height="2" fill="#08D9D6"/>
<rect x="11.3333" width="0.666667" height="2" fill="#08D9D6"/>
</svg>
