<svg width="21" height="21" viewBox="0 0 21 21" fill="none" xmlns="http://www.w3.org/2000/svg">
<rect x="0.5" y="2.5" width="20" height="18" rx="2.5" stroke="#828282"/>
<rect x="0.25" y="6.25" width="20.5" height="0.5" fill="#E3E3E9" stroke="#828282" stroke-width="0.5"/>
<rect x="4.25" y="10.25" width="0.5" height="0.5" fill="#E3E3E9" stroke="#828282" stroke-width="0.5"/>
<rect x="7.25" y="10.25" width="0.5" height="0.5" fill="#E3E3E9" stroke="#828282" stroke-width="0.5"/>
<rect x="10.25" y="10.25" width="0.5" height="0.5" fill="#E3E3E9" stroke="#828282" stroke-width="0.5"/>
<rect x="13.25" y="10.25" width="0.5" height="0.5" fill="#E3E3E9" stroke="#828282" stroke-width="0.5"/>
<rect x="16.25" y="10.25" width="0.5" height="0.5" fill="#E3E3E9" stroke="#828282" stroke-width="0.5"/>
<rect x="4.25" y="13.25" width="0.5" height="0.5" fill="#E3E3E9" stroke="#828282" stroke-width="0.5"/>
<rect x="7.25" y="13.25" width="0.5" height="0.5" fill="#E3E3E9" stroke="#828282" stroke-width="0.5"/>
<rect x="10.25" y="13.25" width="0.5" height="0.5" fill="#E3E3E9" stroke="#828282" stroke-width="0.5"/>
<rect x="13.25" y="13.25" width="0.5" height="0.5" fill="#E3E3E9" stroke="#828282" stroke-width="0.5"/>
<rect x="16.25" y="13.25" width="0.5" height="0.5" fill="#E3E3E9" stroke="#828282" stroke-width="0.5"/>
<rect x="4.25" y="16.25" width="0.5" height="0.5" fill="#E3E3E9" stroke="#828282" stroke-width="0.5"/>
<rect x="7.25" y="16.25" width="0.5" height="0.5" fill="#E3E3E9" stroke="#828282" stroke-width="0.5"/>
<rect x="10.25" y="16.25" width="0.5" height="0.5" fill="#E3E3E9" stroke="#828282" stroke-width="0.5"/>
<rect x="13.25" y="16.25" width="0.5" height="0.5" fill="#E3E3E9" stroke="#828282" stroke-width="0.5"/>
<rect x="16.25" y="16.25" width="0.5" height="0.5" fill="#E3E3E9" stroke="#828282" stroke-width="0.5"/>
<rect x="3.25" y="0.25" width="0.5" height="2.5" fill="#E3E3E9" stroke="#828282" stroke-width="0.5"/>
<rect x="17.25" y="0.25" width="0.5" height="2.5" fill="#E3E3E9" stroke="#828282" stroke-width="0.5"/>
</svg>
